{
    "asset" : {
        "generator" : "Khronos glTF Blender I/O v1.3.48",
        "version" : "2.0"
    },
    "scene" : 0,
    "scenes" : [
        {
            "name" : "Scene",
            "nodes" : [
                0,
                1
            ]
        }
    ],
    "nodes" : [
        {
            "mesh" : 0,
            "name" : "Plane031.002",
            "rotation" : [
                0.5000001788139343,
                0.4999998211860657,
                -0.5000000596046448,
                0.49999991059303284
            ],
            "scale" : [
                0.0008874854538589716,
                0.0007235294324345887,
                0.0007235294324345887
            ],
            "translation" : [
                -0.02331545203924179,
                0.22021304070949554,
                0.12679120898246765
            ]
        },
        {
            "mesh" : 1,
            "name" : "Cylinder.002",
            "scale" : [
                0.03999999538064003,
                0.03999997675418854,
                0.03999999538064003
            ],
            "translation" : [
                -0.021521955728530884,
                -0.0023743510246276855,
                0.001576162874698639
            ]
        }
    ],
    "materials" : [
        {
            "doubleSided" : true,
            "emissiveFactor" : [
                0,
                0,
                0
            ],
            "name" : "TD_Checker",
            "pbrMetallicRoughness" : {
                "baseColorTexture" : {
                    "index" : 0,
                    "texCoord" : 0
                },
                "metallicFactor" : 0.09219858050346375,
                "roughnessFactor" : 0.6241135001182556
            }
        },
        {
            "doubleSided" : true,
            "emissiveFactor" : [
                0,
                0,
                0
            ],
            "name" : "TD_Checker.002",
            "pbrMetallicRoughness" : {
                "baseColorTexture" : {
                    "index" : 1,
                    "texCoord" : 0
                },
                "metallicFactor" : 1,
                "roughnessFactor" : 0.695035457611084
            }
        }
    ],
    "meshes" : [
        {
            "name" : "Plane031.002",
            "primitives" : [
                {
                    "attributes" : {
                        "POSITION" : 0,
                        "NORMAL" : 1,
                        "TEXCOORD_0" : 2
                    },
                    "indices" : 3,
                    "material" : 0
                }
            ]
        },
        {
            "name" : "Cylinder.002",
            "primitives" : [
                {
                    "attributes" : {
                        "POSITION" : 4,
                        "NORMAL" : 5,
                        "TEXCOORD_0" : 6
                    },
                    "indices" : 7,
                    "material" : 1
                }
            ]
        }
    ],
    "textures" : [
        {
            "source" : 0
        },
        {
            "source" : 1
        }
    ],
    "images" : [
        {
            "bufferView" : 4,
            "mimeType" : "image/jpeg",
            "name" : "1616968046_53-p-serebro-fon-54"
        },
        {
            "bufferView" : 9,
            "mimeType" : "image/jpeg",
            "name" : "baked_diffuse(1)"
        }
    ],
    "accessors" : [
        {
            "bufferView" : 0,
            "componentType" : 5126,
            "count" : 1811,
            "max" : [
                10.265731811523438,
                129.67697143554688,
                11.791793823242188
            ],
            "min" : [
                -5.498565673828125,
                -129.213623046875,
                -7.826202392578125
            ],
            "type" : "VEC3"
        },
        {
            "bufferView" : 1,
            "componentType" : 5126,
            "count" : 1811,
            "type" : "VEC3"
        },
        {
            "bufferView" : 2,
            "componentType" : 5126,
            "count" : 1811,
            "type" : "VEC2"
        },
        {
            "bufferView" : 3,
            "componentType" : 5123,
            "count" : 10650,
            "type" : "SCALAR"
        },
        {
            "bufferView" : 5,
            "componentType" : 5126,
            "count" : 2104,
            "max" : [
                3.842599391937256,
                13.683026313781738,
                3.806354522705078
            ],
            "min" : [
                -3.842599391937256,
                0.15622174739837646,
                -3.8003244400024414
            ],
            "type" : "VEC3"
        },
        {
            "bufferView" : 6,
            "componentType" : 5126,
            "count" : 2104,
            "type" : "VEC3"
        },
        {
            "bufferView" : 7,
            "componentType" : 5126,
            "count" : 2104,
            "type" : "VEC2"
        },
        {
            "bufferView" : 8,
            "componentType" : 5123,
            "count" : 10086,
            "type" : "SCALAR"
        }
    ],
    "bufferViews" : [
        {
            "buffer" : 0,
            "byteLength" : 21732,
            "byteOffset" : 0
        },
        {
            "buffer" : 0,
            "byteLength" : 21732,
            "byteOffset" : 21732
        },
        {
            "buffer" : 0,
            "byteLength" : 14488,
            "byteOffset" : 43464
        },
        {
            "buffer" : 0,
            "byteLength" : 21300,
            "byteOffset" : 57952
        },
        {
            "buffer" : 0,
            "byteLength" : 103623,
            "byteOffset" : 79252
        },
        {
            "buffer" : 0,
            "byteLength" : 25248,
            "byteOffset" : 182876
        },
        {
            "buffer" : 0,
            "byteLength" : 25248,
            "byteOffset" : 208124
        },
        {
            "buffer" : 0,
            "byteLength" : 16832,
            "byteOffset" : 233372
        },
        {
            "buffer" : 0,
            "byteLength" : 20172,
            "byteOffset" : 250204
        },
        {
            "buffer" : 0,
            "byteLength" : 229609,
            "byteOffset" : 270376
        }
    ],
    "buffers" : [
        {
            "byteLength" : 499988,
            "uri" : "data:application/octet-stream;base64,"
        }
    ]
}
