{
    "asset" : {
        "generator" : "Khronos glTF Blender I/O v1.3.48",
        "version" : "2.0"
    },
    "scene" : 0,
    "scenes" : [
        {
            "name" : "Scene",
            "nodes" : [
                0,
                1,
                2,
                3
            ]
        }
    ],
    "nodes" : [
        {
            "mesh" : 0,
            "name" : "Plane031.002",
            "rotation" : [
                0.5000001788139343,
                0.4999998211860657,
                -0.5000000596046448,
                0.49999991059303284
            ],
            "scale" : [
                0.0011981053976342082,
                0.0009767647134140134,
                0.0009767647134140134
            ],
            "translation" : [
                -0.023629313334822655,
                0.286639928817749,
                0.14870384335517883
            ]
        },
        {
            "mesh" : 1,
            "name" : "Cylinder.002",
            "scale" : [
                0.053999993950128555,
                0.053999967873096466,
                0.053999993950128555
            ],
            "translation" : [
                -0.02120809443295002,
                -0.013853020966053009,
                -0.020336471498012543
            ]
        },
        {
            "name" : "Light",
            "rotation" : [
                0.16907575726509094,
                0.7558803558349609,
                -0.27217137813568115,
                0.570947527885437
            ],
            "translation" : [
                4.076245307922363,
                5.903861999511719,
                -1.0054539442062378
            ]
        },
        {
            "name" : "Camera",
            "rotation" : [
                0.483536034822464,
                0.33687159419059753,
                -0.20870360732078552,
                0.7804827094078064
            ],
            "translation" : [
                7.358891487121582,
                4.958309173583984,
                6.925790786743164
            ]
        }
    ],
    "materials" : [
        {
            "doubleSided" : true,
            "emissiveFactor" : [
                0,
                0,
                0
            ],
            "name" : "TD_Checker",
            "pbrMetallicRoughness" : {
                "baseColorTexture" : {
                    "index" : 0,
                    "texCoord" : 0
                },
                "metallicFactor" : 0.09219858050346375,
                "roughnessFactor" : 0.6241135001182556
            }
        },
        {
            "doubleSided" : true,
            "emissiveFactor" : [
                0,
                0,
                0
            ],
            "name" : "TD_Checker.002",
            "pbrMetallicRoughness" : {
                "baseColorTexture" : {
                    "index" : 1,
                    "texCoord" : 0
                },
                "metallicFactor" : 0.8085106611251831,
                "roughnessFactor" : 0.8865247964859009
            }
        }
    ],
    "meshes" : [
        {
            "name" : "Plane031.002",
            "primitives" : [
                {
                    "attributes" : {
                        "POSITION" : 0,
                        "NORMAL" : 1,
                        "TEXCOORD_0" : 2
                    },
                    "indices" : 3,
                    "material" : 0
                }
            ]
        },
        {
            "name" : "Cylinder.002",
            "primitives" : [
                {
                    "attributes" : {
                        "POSITION" : 4,
                        "NORMAL" : 5,
                        "TEXCOORD_0" : 6
                    },
                    "indices" : 7,
                    "material" : 1
                }
            ]
        }
    ],
    "textures" : [
        {
            "source" : 0
        },
        {
            "source" : 1
        }
    ],
    "images" : [
        {
            "bufferView" : 4,
            "mimeType" : "image/jpeg",
            "name" : "1616968046_53-p-serebro-fon-54"
        },
        {
            "bufferView" : 9,
            "mimeType" : "image/jpeg",
            "name" : "baked_diffuse1"
        }
    ],
    "accessors" : [
        {
            "bufferView" : 0,
            "componentType" : 5126,
            "count" : 2631,
            "max" : [
                10.265731811523438,
                129.67697143554688,
                11.791793823242188
            ],
            "min" : [
                -5.498565673828125,
                -129.213623046875,
                -7.826202392578125
            ],
            "type" : "VEC3"
        },
        {
            "bufferView" : 1,
            "componentType" : 5126,
            "count" : 2631,
            "type" : "VEC3"
        },
        {
            "bufferView" : 2,
            "componentType" : 5126,
            "count" : 2631,
            "type" : "VEC2"
        },
        {
            "bufferView" : 3,
            "componentType" : 5123,
            "count" : 10650,
            "type" : "SCALAR"
        },
        {
            "bufferView" : 5,
            "componentType" : 5126,
            "count" : 2104,
            "max" : [
                3.842599391937256,
                13.683026313781738,
                3.806354522705078
            ],
            "min" : [
                -3.842599391937256,
                0.15622174739837646,
                -3.8003244400024414
            ],
            "type" : "VEC3"
        },
        {
            "bufferView" : 6,
            "componentType" : 5126,
            "count" : 2104,
            "type" : "VEC3"
        },
        {
            "bufferView" : 7,
            "componentType" : 5126,
            "count" : 2104,
            "type" : "VEC2"
        },
        {
            "bufferView" : 8,
            "componentType" : 5123,
            "count" : 10086,
            "type" : "SCALAR"
        }
    ],
    "bufferViews" : [
        {
            "buffer" : 0,
            "byteLength" : 31572,
            "byteOffset" : 0
        },
        {
            "buffer" : 0,
            "byteLength" : 31572,
            "byteOffset" : 31572
        },
        {
            "buffer" : 0,
            "byteLength" : 21048,
            "byteOffset" : 63144
        },
        {
            "buffer" : 0,
            "byteLength" : 21300,
            "byteOffset" : 84192
        },
        {
            "buffer" : 0,
            "byteLength" : 103623,
            "byteOffset" : 105492
        },
        {
            "buffer" : 0,
            "byteLength" : 25248,
            "byteOffset" : 209116
        },
        {
            "buffer" : 0,
            "byteLength" : 25248,
            "byteOffset" : 234364
        },
        {
            "buffer" : 0,
            "byteLength" : 16832,
            "byteOffset" : 259612
        },
        {
            "buffer" : 0,
            "byteLength" : 20172,
            "byteOffset" : 276444
        },
        {
            "buffer" : 0,
            "byteLength" : 229609,
            "byteOffset" : 296616
        }
    ],
    "buffers" : [
        {
            "byteLength" : 526228,
            "uri" : "data:application/octet-stream;base64,"
        }
    ]
}
