{
    "asset" : {
        "generator" : "Khronos glTF Blender I/O v1.3.48",
        "version" : "2.0"
    },
    "scene" : 0,
    "scenes" : [
        {
            "name" : "Scene",
            "nodes" : [
                0,
                1
            ]
        }
    ],
    "nodes" : [
        {
            "mesh" : 0,
            "name" : "Plane031.002",
            "rotation" : [
                0.5000001788139343,
                0.4999998211860657,
                -0.5000000596046448,
                0.49999991059303284
            ],
            "scale" : [
                0.022187137976288795,
                0.018088238313794136,
                0.018088238313794136
            ],
            "translation" : [
                -0.044837407767772675,
                5.564684867858887,
                3.1303746700286865
            ]
        },
        {
            "mesh" : 1,
            "name" : "Cylinder.002"
        }
    ],
    "materials" : [
        {
            "doubleSided" : true,
            "emissiveFactor" : [
                0,
                0,
                0
            ],
            "name" : "TD_Checker",
            "pbrMetallicRoughness" : {
                "baseColorFactor" : [
                    0.800000011920929,
                    0.800000011920929,
                    0.800000011920929,
                    1
                ],
                "metallicFactor" : 0,
                "roughnessFactor" : 0.5
            }
        },
        {
            "doubleSided" : true,
            "emissiveFactor" : [
                0,
                0,
                0
            ],
            "name" : "TD_Checker.002",
            "pbrMetallicRoughness" : {
                "baseColorTexture" : {
                    "index" : 0,
                    "texCoord" : 0
                },
                "metallicFactor" : 1,
                "roughnessFactor" : 0
            }
        }
    ],
    "meshes" : [
        {
            "name" : "Plane031.002",
            "primitives" : [
                {
                    "attributes" : {
                        "POSITION" : 0,
                        "NORMAL" : 1,
                        "TEXCOORD_0" : 2
                    },
                    "indices" : 3,
                    "material" : 0
                }
            ]
        },
        {
            "name" : "Cylinder.002",
            "primitives" : [
                {
                    "attributes" : {
                        "POSITION" : 4,
                        "NORMAL" : 5,
                        "TEXCOORD_0" : 6
                    },
                    "indices" : 7,
                    "material" : 1
                }
            ]
        }
    ],
    "textures" : [
        {
            "source" : 0
        }
    ],
    "images" : [
        {
            "bufferView" : 8,
            "mimeType" : "image/jpeg",
            "name" : "baked_diffuse(1)"
        }
    ],
    "accessors" : [
        {
            "bufferView" : 0,
            "componentType" : 5126,
            "count" : 2024,
            "max" : [
                10.265731811523438,
                129.67697143554688,
                11.791793823242188
            ],
            "min" : [
                -5.498565673828125,
                -129.213623046875,
                -7.826202392578125
            ],
            "type" : "VEC3"
        },
        {
            "bufferView" : 1,
            "componentType" : 5126,
            "count" : 2024,
            "type" : "VEC3"
        },
        {
            "bufferView" : 2,
            "componentType" : 5126,
            "count" : 2024,
            "type" : "VEC2"
        },
        {
            "bufferView" : 3,
            "componentType" : 5123,
            "count" : 10650,
            "type" : "SCALAR"
        },
        {
            "bufferView" : 4,
            "componentType" : 5126,
            "count" : 2104,
            "max" : [
                3.842599391937256,
                13.683026313781738,
                3.806354522705078
            ],
            "min" : [
                -3.842599391937256,
                0.15622174739837646,
                -3.8003244400024414
            ],
            "type" : "VEC3"
        },
        {
            "bufferView" : 5,
            "componentType" : 5126,
            "count" : 2104,
            "type" : "VEC3"
        },
        {
            "bufferView" : 6,
            "componentType" : 5126,
            "count" : 2104,
            "type" : "VEC2"
        },
        {
            "bufferView" : 7,
            "componentType" : 5123,
            "count" : 10086,
            "type" : "SCALAR"
        }
    ],
    "bufferViews" : [
        {
            "buffer" : 0,
            "byteLength" : 24288,
            "byteOffset" : 0
        },
        {
            "buffer" : 0,
            "byteLength" : 24288,
            "byteOffset" : 24288
        },
        {
            "buffer" : 0,
            "byteLength" : 16192,
            "byteOffset" : 48576
        },
        {
            "buffer" : 0,
            "byteLength" : 21300,
            "byteOffset" : 64768
        },
        {
            "buffer" : 0,
            "byteLength" : 25248,
            "byteOffset" : 86068
        },
        {
            "buffer" : 0,
            "byteLength" : 25248,
            "byteOffset" : 111316
        },
        {
            "buffer" : 0,
            "byteLength" : 16832,
            "byteOffset" : 136564
        },
        {
            "buffer" : 0,
            "byteLength" : 20172,
            "byteOffset" : 153396
        },
        {
            "buffer" : 0,
            "byteLength" : 229609,
            "byteOffset" : 173568
        }
    ],
    "buffers" : [
        {
            "byteLength" : 403180,
            "uri" : "data:application/octet-stream;base64,"
        }
    ]
}
